<svg width="32" height="33" viewBox="0 0 32 33" fill="none" xmlns="http://www.w3.org/2000/svg">
<g clip-path="url(#clip0_916_1223)">
<path d="M3.47656 6.67562V2.68688C3.47656 2.515 3.61656 2.375 3.78906 2.375H5.18594C5.70406 2.375 6.12344 1.955 6.12344 1.4375C6.12344 0.92 5.70406 0.5 5.18594 0.5H3.78906C2.58281 0.5 1.60156 1.48125 1.60156 2.68688V6.67562C1.90219 6.60187 2.21594 6.5625 2.53906 6.5625C2.86219 6.5625 3.17594 6.60187 3.47656 6.67562Z" fill="#3C7777"/>
<path d="M13.6992 2.375H15.2705C15.4423 2.375 15.583 2.515 15.583 2.68688V6.67562C15.8836 6.60187 16.1973 6.5625 16.5205 6.5625C16.8436 6.5625 17.1573 6.60187 17.458 6.67562V2.68688C17.458 1.48125 16.4767 0.5 15.2705 0.5H13.6992C13.1817 0.5 12.7617 0.92 12.7617 1.4375C12.7617 1.955 13.1817 2.375 13.6992 2.375Z" fill="#3C7777"/>
<path d="M28.6406 25.0102V21.5478C28.6388 18.5828 26.225 16.1709 23.2581 16.1709C20.29 16.1709 17.875 18.5846 17.875 21.5515V26.9234C17.875 28.9646 16.2138 30.6246 14.1719 30.6246C12.13 30.6246 10.4688 28.9646 10.4688 26.9234V20.7596C10.1588 20.784 9.84563 20.7959 9.53125 20.7959C9.21688 20.7959 8.90375 20.784 8.59375 20.7596V26.9234C8.59375 29.9984 11.0963 32.4996 14.1719 32.4996C17.2475 32.4996 19.75 29.9984 19.75 26.9234V21.5515C19.75 19.6184 21.3238 18.0459 23.2581 18.0459C25.1925 18.0459 26.7656 19.6184 26.7656 21.5515V25.0103C25.1241 25.4288 23.9065 26.919 23.9065 28.6883C23.9065 30.7811 25.6098 32.4837 27.7034 32.4837C29.797 32.4837 31.5002 30.7811 31.5002 28.6883C31.5002 26.9188 30.2824 25.4285 28.6406 25.0102Z" fill="#3C7777"/>
<path d="M18.5611 10.8692V10.4778C18.5611 9.351 17.6476 8.4375 16.5208 8.4375C15.394 8.4375 14.4804 9.351 14.4804 10.4778V10.8692C14.4804 13.0602 12.2599 14.8427 9.53056 14.8427C6.80119 14.8427 4.58069 13.0602 4.58069 10.8692V10.4778C4.58063 9.351 3.66712 8.4375 2.54031 8.4375C1.4135 8.4375 0.5 9.351 0.5 10.4778V10.8692C0.5 15.4275 4.65044 18.9212 9.5305 18.9212C14.408 18.9212 18.5611 15.4289 18.5611 10.8692Z" fill="#3C7777"/>
</g>
<defs>
<clipPath id="clip0_916_1223">
<rect width="32" height="32" fill="white" transform="translate(0 0.5)"/>
</clipPath>
</defs>
</svg>
